<svg width="810" height="130" viewBox="0 0 810 130" fill="none" xmlns="http://www.w3.org/2000/svg">
<g clip-path="url(#clip0_8_18)">
<rect width="810" height="130" fill="#FAFAFA"/>
<path d="M47.088 69.036H49.572C51.612 69.036 53.544 68.988 55.368 68.892C57.216 68.796 59.124 68.58 61.092 68.244L61.56 72.888C59.52 73.272 57.54 73.512 55.62 73.608C53.7 73.704 51.684 73.752 49.572 73.752H47.088V69.036ZM47.052 50.748H58.932V64.284H52.704V70.8H47.088V59.784H53.352V55.284H47.052V50.748ZM69.948 47.616H75.456V81.384H69.948V47.616ZM60.192 58.776H65.304V63.492H60.192V58.776ZM63.072 48.12H68.436V79.872H63.072V48.12ZM82.7972 62.88H106.845V67.452H82.7972V62.88ZM79.4132 72.924H109.977V77.64H79.4132V72.924ZM82.7972 50.208H106.629V54.888H88.5572V64.752H82.7972V50.208ZM135.966 47.652H141.474V64.824H135.966V47.652ZM129.018 48.192H134.418V64.716H129.018V48.192ZM125.634 54.384H130.458V58.92H125.634V54.384ZM118.146 66.012H141.474V75.696H124.014V79.296H118.182V71.556H135.678V70.44H118.146V66.012ZM118.182 76.884H142.446V81.276H118.182V76.884ZM113.502 49.452H118.938V52.656H121.674V49.452H127.038V64.032H113.502V49.452ZM118.938 56.868V59.676H121.674V56.868H118.938ZM146.62 49.848H152.056V54.132H154.792V49.848H160.156V66.3H146.62V49.848ZM152.056 58.524V61.764H154.792V58.524H152.056ZM169.084 47.652H174.592V70.512H169.084V47.652ZM162.136 48.264H167.536V67.632H162.136V48.264ZM158.752 55.68H163.576V60.288H158.752V55.68ZM159.832 68.892H164.764V69.612C164.764 71.028 164.512 72.384 164.008 73.68C163.504 74.952 162.712 76.116 161.632 77.172C160.552 78.204 159.172 79.08 157.492 79.8C155.836 80.52 153.832 81.024 151.48 81.312L149.464 76.848C151.072 76.68 152.464 76.416 153.64 76.056C154.816 75.672 155.8 75.24 156.592 74.76C157.384 74.256 158.02 73.716 158.5 73.14C158.98 72.564 159.316 71.976 159.508 71.376C159.724 70.776 159.832 70.188 159.832 69.612V68.892ZM160.66 68.892H165.592V69.612C165.592 70.188 165.688 70.776 165.88 71.376C166.096 71.976 166.444 72.564 166.924 73.14C167.404 73.716 168.04 74.256 168.832 74.76C169.624 75.24 170.608 75.672 171.784 76.056C172.96 76.416 174.352 76.68 175.96 76.848L173.944 81.312C172.072 81.072 170.404 80.7 168.94 80.196C167.5 79.692 166.252 79.068 165.196 78.324C164.164 77.604 163.312 76.788 162.64 75.876C161.968 74.94 161.464 73.944 161.128 72.888C160.816 71.832 160.66 70.74 160.66 69.612V68.892Z" fill="#D60F0F"/>
<path d="M178.729 64.572H209.293V69.144H178.729V64.572ZM182.293 76.308H205.837V80.916H182.293V76.308ZM182.293 71.016H188.089V77.82H182.293V71.016ZM194.029 48.552C196.501 48.552 198.661 48.84 200.509 49.416C202.381 49.992 203.833 50.808 204.865 51.864C205.921 52.92 206.449 54.168 206.449 55.608C206.449 57.072 205.921 58.332 204.865 59.388C203.833 60.444 202.381 61.26 200.509 61.836C198.661 62.412 196.501 62.7 194.029 62.7C191.557 62.7 189.385 62.412 187.513 61.836C185.665 61.26 184.213 60.444 183.157 59.388C182.125 58.332 181.609 57.072 181.609 55.608C181.609 54.168 182.125 52.92 183.157 51.864C184.213 50.808 185.665 49.992 187.513 49.416C189.385 48.84 191.557 48.552 194.029 48.552ZM194.029 53.124C192.661 53.124 191.497 53.22 190.537 53.412C189.577 53.58 188.845 53.844 188.341 54.204C187.861 54.564 187.621 55.032 187.621 55.608C187.621 56.184 187.861 56.664 188.341 57.048C188.845 57.408 189.577 57.684 190.537 57.876C191.497 58.044 192.661 58.128 194.029 58.128C195.421 58.128 196.585 58.044 197.521 57.876C198.481 57.684 199.201 57.408 199.681 57.048C200.185 56.664 200.437 56.184 200.437 55.608C200.437 55.032 200.185 54.564 199.681 54.204C199.201 53.844 198.481 53.58 197.521 53.412C196.585 53.22 195.421 53.124 194.029 53.124ZM227.572 68.316H233.368V73.752H227.572V68.316ZM242.332 47.652H248.128V81.42H242.332V47.652ZM220.408 76.236L219.76 71.592C221.752 71.592 223.924 71.58 226.276 71.556C228.652 71.532 231.088 71.46 233.584 71.34C236.08 71.196 238.492 70.968 240.82 70.656L241.216 74.796C238.792 75.252 236.356 75.588 233.908 75.804C231.46 75.996 229.084 76.116 226.78 76.164C224.5 76.212 222.376 76.236 220.408 76.236ZM220.372 51.144H240.604V55.644H220.372V51.144ZM230.488 56.652C232.168 56.652 233.656 56.928 234.952 57.48C236.248 58.008 237.256 58.752 237.976 59.712C238.72 60.648 239.092 61.752 239.092 63.024C239.092 64.272 238.72 65.388 237.976 66.372C237.256 67.332 236.248 68.088 234.952 68.64C233.656 69.168 232.168 69.432 230.488 69.432C228.832 69.432 227.356 69.168 226.06 68.64C224.764 68.088 223.744 67.332 223 66.372C222.28 65.388 221.92 64.272 221.92 63.024C221.92 61.752 222.28 60.648 223 59.712C223.744 58.752 224.764 58.008 226.06 57.48C227.356 56.928 228.832 56.652 230.488 56.652ZM230.488 60.972C229.6 60.972 228.868 61.14 228.292 61.476C227.74 61.812 227.464 62.328 227.464 63.024C227.464 63.744 227.74 64.272 228.292 64.608C228.868 64.944 229.6 65.112 230.488 65.112C231.4 65.112 232.132 64.944 232.684 64.608C233.26 64.272 233.548 63.744 233.548 63.024C233.548 62.328 233.26 61.812 232.684 61.476C232.132 61.14 231.4 60.972 230.488 60.972ZM227.572 47.832H233.404V53.772H227.572V47.832ZM259.646 56.796H264.146V57.912C264.146 59.688 263.978 61.464 263.642 63.24C263.306 64.992 262.766 66.66 262.021 68.244C261.301 69.828 260.366 71.232 259.214 72.456C258.062 73.68 256.658 74.64 255.002 75.336L251.942 70.872C253.382 70.224 254.594 69.408 255.578 68.424C256.562 67.44 257.354 66.36 257.954 65.184C258.554 64.008 258.986 62.796 259.25 61.548C259.514 60.3 259.646 59.088 259.646 57.912V56.796ZM260.978 56.796H265.442V57.912C265.442 59.016 265.562 60.168 265.802 61.368C266.066 62.544 266.474 63.696 267.026 64.824C267.602 65.952 268.358 66.996 269.294 67.956C270.23 68.916 271.394 69.72 272.786 70.368L269.726 74.76C268.142 74.064 266.798 73.116 265.694 71.916C264.59 70.716 263.69 69.36 262.994 67.848C262.298 66.336 261.782 64.728 261.446 63.024C261.134 61.32 260.978 59.616 260.978 57.912V56.796ZM253.202 52.944H271.742V57.48H253.202V52.944ZM259.646 48.48H265.442V55.248H259.646V48.48ZM273.614 47.652H279.446V81.42H273.614V47.652ZM278.186 60.324H283.982V65.112H278.186V60.324ZM306.839 47.616H312.707V66.804H306.839V47.616ZM311.015 55.176H316.811V59.892H311.015V55.176ZM301.439 67.344C303.791 67.344 305.831 67.632 307.559 68.208C309.287 68.784 310.631 69.6 311.591 70.656C312.551 71.688 313.031 72.936 313.031 74.4C313.031 75.864 312.551 77.124 311.591 78.18C310.631 79.26 309.287 80.076 307.559 80.628C305.831 81.204 303.791 81.492 301.439 81.492C299.111 81.492 297.071 81.204 295.319 80.628C293.567 80.076 292.211 79.26 291.251 78.18C290.291 77.124 289.811 75.864 289.811 74.4C289.811 72.936 290.291 71.688 291.251 70.656C292.211 69.6 293.567 68.784 295.319 68.208C297.071 67.632 299.111 67.344 301.439 67.344ZM301.439 71.952C300.143 71.952 299.063 72.036 298.199 72.204C297.335 72.372 296.675 72.636 296.219 72.996C295.787 73.332 295.571 73.8 295.571 74.4C295.571 74.976 295.787 75.456 296.219 75.84C296.675 76.2 297.335 76.464 298.199 76.632C299.063 76.8 300.143 76.884 301.439 76.884C302.735 76.884 303.815 76.8 304.679 76.632C305.567 76.464 306.227 76.2 306.659 75.84C307.091 75.456 307.307 74.976 307.307 74.4C307.307 73.8 307.091 73.332 306.659 72.996C306.227 72.636 305.567 72.372 304.679 72.204C303.815 72.036 302.735 71.952 301.439 71.952ZM286.787 60.936H289.739C292.307 60.936 294.467 60.912 296.219 60.864C297.971 60.816 299.507 60.72 300.827 60.576C302.171 60.408 303.479 60.192 304.751 59.928L305.291 64.5C304.019 64.788 302.687 65.016 301.295 65.184C299.903 65.328 298.283 65.424 296.435 65.472C294.611 65.52 292.379 65.544 289.739 65.544H286.787V60.936ZM286.787 49.704H302.015V54.312H292.583V64.104H286.787V49.704ZM339.443 51.8182V78H333.128V57.7244H332.974L327.119 61.304V55.8324L333.575 51.8182H339.443ZM361.157 55.5H368.645V60.144H361.157V55.5ZM349.817 69.036H373.109V81.42H367.277V73.572H349.817V69.036ZM367.277 47.652H373.109V67.668H367.277V47.652ZM353.993 49.308C355.673 49.308 357.185 49.68 358.529 50.424C359.897 51.144 360.977 52.152 361.769 53.448C362.585 54.72 362.993 56.172 362.993 57.804C362.993 59.436 362.585 60.9 361.769 62.196C360.977 63.492 359.897 64.512 358.529 65.256C357.185 65.976 355.673 66.336 353.993 66.336C352.289 66.336 350.753 65.976 349.385 65.256C348.017 64.512 346.925 63.492 346.109 62.196C345.317 60.9 344.921 59.436 344.921 57.804C344.921 56.172 345.317 54.72 346.109 53.448C346.925 52.152 348.017 51.144 349.385 50.424C350.753 49.68 352.289 49.308 353.993 49.308ZM353.957 54.24C353.309 54.24 352.721 54.372 352.193 54.636C351.665 54.9 351.245 55.296 350.933 55.824C350.621 56.352 350.465 57.012 350.465 57.804C350.465 58.596 350.621 59.268 350.933 59.82C351.245 60.348 351.665 60.744 352.193 61.008C352.721 61.272 353.309 61.404 353.957 61.404C354.629 61.404 355.217 61.272 355.721 61.008C356.249 60.744 356.669 60.348 356.981 59.82C357.293 59.268 357.449 58.596 357.449 57.804C357.449 57.012 357.293 56.352 356.981 55.824C356.669 55.296 356.249 54.9 355.721 54.636C355.217 54.372 354.629 54.24 353.957 54.24ZM386.066 65.148H391.862V72.456H386.066V65.148ZM400.754 47.616H406.55V73.14H400.754V47.616ZM381.53 76.308H407.27V80.916H381.53V76.308ZM381.53 70.764H387.326V77.532H381.53V70.764ZM378.29 66.768L377.606 62.196C379.646 62.172 381.866 62.148 384.266 62.124C386.69 62.076 389.15 61.98 391.646 61.836C394.166 61.692 396.59 61.476 398.918 61.188L399.278 65.292C396.902 65.7 394.478 66.012 392.006 66.228C389.558 66.444 387.158 66.588 384.806 66.66C382.478 66.708 380.306 66.744 378.29 66.768ZM394.67 67.056H401.978V70.944H394.67V67.056ZM388.406 48.66C390.062 48.66 391.526 48.924 392.798 49.452C394.07 49.956 395.066 50.676 395.786 51.612C396.506 52.524 396.866 53.58 396.866 54.78C396.866 55.98 396.506 57.048 395.786 57.984C395.066 58.896 394.07 59.604 392.798 60.108C391.526 60.612 390.062 60.864 388.406 60.864C386.75 60.864 385.274 60.612 383.978 60.108C382.706 59.604 381.71 58.896 380.99 57.984C380.27 57.048 379.91 55.98 379.91 54.78C379.91 53.58 380.27 52.524 380.99 51.612C381.71 50.676 382.706 49.956 383.978 49.452C385.274 48.924 386.75 48.66 388.406 48.66ZM388.406 52.872C387.518 52.872 386.798 53.016 386.246 53.304C385.694 53.592 385.418 54.084 385.418 54.78C385.418 55.452 385.694 55.944 386.246 56.256C386.798 56.544 387.518 56.688 388.406 56.688C389.294 56.688 390.002 56.544 390.53 56.256C391.082 55.944 391.358 55.452 391.358 54.78C391.358 54.324 391.226 53.964 390.962 53.7C390.722 53.412 390.386 53.208 389.954 53.088C389.522 52.944 389.006 52.872 388.406 52.872ZM432.035 47.616H437.831V81.384H432.035V47.616ZM436.067 60.432H441.863V65.22H436.067V60.432ZM415.223 50.964H420.659C420.659 53.46 420.599 55.788 420.479 57.948C420.383 60.084 420.131 62.1 419.723 63.996C419.315 65.892 418.679 67.716 417.815 69.468C416.975 71.196 415.811 72.912 414.323 74.616L409.823 71.34C411.071 69.9 412.055 68.496 412.775 67.128C413.519 65.736 414.059 64.284 414.395 62.772C414.755 61.26 414.983 59.604 415.079 57.804C415.175 55.98 415.223 53.928 415.223 51.648V50.964ZM411.551 50.964H417.527V55.608H411.551V50.964ZM424.583 50.964H430.019C430.019 53.628 429.947 56.136 429.803 58.488C429.683 60.816 429.407 63.024 428.975 65.112C428.567 67.2 427.943 69.204 427.103 71.124C426.263 73.02 425.135 74.88 423.719 76.704L419.219 73.5C420.419 71.892 421.367 70.32 422.063 68.784C422.783 67.224 423.323 65.604 423.683 63.924C424.043 62.244 424.283 60.408 424.403 58.416C424.523 56.4 424.583 54.132 424.583 51.612V50.964ZM421.847 50.964H426.995V55.608H421.847V50.964ZM451.616 53.232H456.224V56.112C456.224 58.152 456.056 60.144 455.72 62.088C455.384 64.032 454.844 65.856 454.1 67.56C453.356 69.264 452.384 70.764 451.184 72.06C449.984 73.356 448.52 74.388 446.792 75.156L443.516 70.584C445.028 69.912 446.3 69.048 447.332 67.992C448.388 66.936 449.228 65.76 449.852 64.464C450.476 63.168 450.92 61.812 451.184 60.396C451.472 58.956 451.616 57.528 451.616 56.112V53.232ZM452.948 53.232H457.52V56.112C457.52 57.432 457.652 58.776 457.916 60.144C458.204 61.488 458.648 62.772 459.248 63.996C459.872 65.22 460.688 66.324 461.696 67.308C462.728 68.292 464 69.096 465.512 69.72L462.38 74.292C460.652 73.572 459.188 72.588 457.988 71.34C456.788 70.092 455.816 68.664 455.072 67.056C454.328 65.424 453.788 63.684 453.452 61.836C453.116 59.964 452.948 58.056 452.948 56.112V53.232ZM444.992 50.748H464V55.5H444.992V50.748ZM466.34 47.652H472.172V81.42H466.34V47.652ZM488.112 49.452H509.316V54.024H488.112V49.452ZM484.8 63.78H515.364V68.424H484.8V63.78ZM496.932 67.092H502.8V81.42H496.932V67.092ZM506.292 49.452H512.016V52.476C512.016 53.724 511.992 55.044 511.944 56.436C511.92 57.804 511.812 59.316 511.62 60.972C511.452 62.628 511.14 64.476 510.684 66.516L504.996 65.868C505.644 63.012 506.016 60.516 506.112 58.38C506.232 56.244 506.292 54.276 506.292 52.476V49.452ZM541.569 47.616H547.077V81.384H541.569V47.616ZM538.221 60.252H543.333V64.86H538.221V60.252ZM534.225 48.048H539.625V79.98H534.225V48.048ZM518.709 50.856H532.281V73.32H518.709V50.856ZM526.917 55.356H524.109V68.82H526.917V55.356ZM571.986 47.652H577.782V65.652H571.986V47.652ZM575.55 54.348H581.994V59.028H575.55V54.348ZM555.03 66.804H577.782V75.948H560.826V78.432H555.066V72.06H572.058V70.944H555.03V66.804ZM555.066 77.064H578.646V81.276H555.066V77.064ZM550.962 49.812H570.798V54.096H550.962V49.812ZM560.898 54.528C563.442 54.528 565.482 55.032 567.018 56.04C568.554 57.024 569.322 58.368 569.322 60.072C569.322 61.752 568.554 63.084 567.018 64.068C565.482 65.052 563.442 65.544 560.898 65.544C558.354 65.544 556.314 65.052 554.778 64.068C553.242 63.084 552.474 61.752 552.474 60.072C552.474 58.368 553.242 57.024 554.778 56.04C556.314 55.032 558.354 54.528 560.898 54.528ZM560.898 58.56C560.01 58.56 559.314 58.68 558.81 58.92C558.306 59.136 558.054 59.52 558.054 60.072C558.054 60.6 558.306 60.972 558.81 61.188C559.314 61.404 560.01 61.512 560.898 61.512C561.81 61.512 562.506 61.404 562.986 61.188C563.49 60.972 563.742 60.6 563.742 60.072C563.742 59.52 563.49 59.136 562.986 58.92C562.506 58.68 561.81 58.56 560.898 58.56ZM557.982 47.436H563.778V52.872H557.982V47.436ZM604.09 48.48H609.166V49.92C609.166 51.216 608.986 52.488 608.626 53.736C608.29 54.96 607.75 56.124 607.006 57.228C606.286 58.308 605.362 59.292 604.234 60.18C603.13 61.068 601.81 61.824 600.274 62.448C598.738 63.048 596.986 63.492 595.018 63.78L592.786 59.136C594.514 58.92 596.002 58.572 597.25 58.092C598.522 57.612 599.59 57.06 600.454 56.436C601.342 55.788 602.05 55.092 602.578 54.348C603.106 53.604 603.49 52.86 603.73 52.116C603.97 51.348 604.09 50.616 604.09 49.92V48.48ZM605.206 48.48H610.282V49.92C610.282 50.616 610.402 51.348 610.642 52.116C610.882 52.86 611.266 53.604 611.794 54.348C612.322 55.092 613.018 55.788 613.882 56.436C614.77 57.06 615.838 57.612 617.086 58.092C618.358 58.572 619.858 58.92 621.586 59.136L619.354 63.78C617.386 63.492 615.634 63.048 614.098 62.448C612.562 61.824 611.23 61.068 610.102 60.18C608.998 59.292 608.074 58.308 607.33 57.228C606.61 56.124 606.07 54.96 605.71 53.736C605.374 52.488 605.206 51.216 605.206 49.92V48.48ZM604.126 69.288H609.922V81.42H604.126V69.288ZM591.886 65.616H622.45V70.296H591.886V65.616ZM639.865 67.992H644.185V68.748C644.185 70.572 643.933 72.288 643.429 73.896C642.949 75.504 642.157 76.908 641.053 78.108C639.973 79.332 638.509 80.268 636.661 80.916L633.853 76.704C635.365 76.2 636.553 75.54 637.417 74.724C638.305 73.884 638.929 72.948 639.289 71.916C639.673 70.884 639.865 69.828 639.865 68.748V67.992ZM641.377 67.992H645.481V68.748C645.481 69.804 645.661 70.86 646.021 71.916C646.381 72.972 646.969 73.944 647.785 74.832C648.601 75.72 649.705 76.452 651.097 77.028L648.793 81.276C646.921 80.58 645.445 79.584 644.365 78.288C643.285 76.992 642.517 75.516 642.061 73.86C641.605 72.18 641.377 70.476 641.377 68.748V67.992ZM652.069 67.992H656.173V68.748C656.173 70.428 655.933 72.096 655.453 73.752C654.997 75.408 654.229 76.896 653.149 78.216C652.093 79.536 650.641 80.556 648.793 81.276L646.453 77.028C647.845 76.404 648.949 75.636 649.765 74.724C650.581 73.812 651.169 72.84 651.529 71.808C651.889 70.776 652.069 69.756 652.069 68.748V67.992ZM653.473 67.992H657.793V68.748C657.793 69.9 657.973 71.004 658.333 72.06C658.717 73.092 659.341 74.016 660.205 74.832C661.093 75.624 662.293 76.248 663.805 76.704L660.997 80.916C659.149 80.292 657.673 79.38 656.569 78.18C655.465 77.004 654.673 75.612 654.193 74.004C653.713 72.372 653.473 70.62 653.473 68.748V67.992ZM655.165 47.652H660.997V66.66H655.165V47.652ZM642.457 49.236C644.233 49.236 645.829 49.596 647.245 50.316C648.661 51.012 649.777 51.984 650.593 53.232C651.433 54.456 651.853 55.86 651.853 57.444C651.853 59.028 651.433 60.444 650.593 61.692C649.777 62.916 648.661 63.888 647.245 64.608C645.829 65.304 644.233 65.652 642.457 65.652C640.681 65.652 639.085 65.304 637.669 64.608C636.253 63.888 635.125 62.916 634.285 61.692C633.469 60.444 633.061 59.028 633.061 57.444C633.061 55.86 633.469 54.456 634.285 53.232C635.125 51.984 636.253 51.012 637.669 50.316C639.085 49.596 640.681 49.236 642.457 49.236ZM642.457 54.024C641.761 54.024 641.125 54.156 640.549 54.42C639.997 54.66 639.553 55.032 639.217 55.536C638.905 56.04 638.749 56.676 638.749 57.444C638.749 58.188 638.905 58.824 639.217 59.352C639.553 59.856 639.997 60.24 640.549 60.504C641.125 60.744 641.761 60.864 642.457 60.864C643.177 60.864 643.813 60.744 644.365 60.504C644.917 60.24 645.349 59.856 645.661 59.352C645.997 58.824 646.165 58.188 646.165 57.444C646.165 56.676 645.997 56.04 645.661 55.536C645.349 55.032 644.917 54.66 644.365 54.42C643.813 54.156 643.177 54.024 642.457 54.024ZM669.239 67.848H674.963V70.116H686.879V67.848H692.603V81.096H669.239V67.848ZM674.963 74.4V76.596H686.879V74.4H674.963ZM665.819 62.016H696.383V66.552H665.819V62.016ZM678.131 47.976H683.099V48.732C683.099 49.908 682.919 51.048 682.559 52.152C682.223 53.256 681.695 54.288 680.975 55.248C680.279 56.208 679.379 57.084 678.275 57.876C677.195 58.644 675.899 59.292 674.387 59.82C672.899 60.348 671.183 60.732 669.239 60.972L667.187 56.508C668.867 56.316 670.331 56.028 671.579 55.644C672.827 55.236 673.871 54.768 674.711 54.24C675.551 53.688 676.223 53.1 676.727 52.476C677.231 51.852 677.591 51.228 677.807 50.604C678.023 49.956 678.131 49.332 678.131 48.732V47.976ZM679.103 47.976H684.071V48.732C684.071 49.332 684.179 49.956 684.395 50.604C684.611 51.228 684.971 51.852 685.475 52.476C685.979 53.1 686.651 53.688 687.491 54.24C688.331 54.768 689.375 55.236 690.623 55.644C691.871 56.028 693.335 56.316 695.015 56.508L692.963 60.972C691.019 60.732 689.291 60.348 687.779 59.82C686.291 59.292 684.995 58.644 683.891 57.876C682.811 57.084 681.911 56.208 681.191 55.248C680.495 54.288 679.967 53.256 679.607 52.152C679.271 51.048 679.103 49.908 679.103 48.732V47.976ZM721.688 47.616H727.484V81.384H721.688V47.616ZM700.52 50.784H706.316V71.808H700.52V50.784ZM700.52 68.388H703.652C706.076 68.388 708.632 68.292 711.32 68.1C714.032 67.884 716.768 67.512 719.528 66.984L720.14 71.772C717.284 72.372 714.452 72.78 711.644 72.996C708.836 73.188 706.172 73.284 703.652 73.284H700.52V68.388ZM752.969 47.58H758.801V81.492H752.969V47.58ZM757.541 59.64H763.337V64.392H757.541V59.64ZM733.277 68.748H736.229C738.053 68.748 739.781 68.724 741.413 68.676C743.069 68.628 744.689 68.532 746.273 68.388C747.857 68.22 749.465 68.004 751.097 67.74L751.637 72.492C749.957 72.78 748.289 73.008 746.633 73.176C745.001 73.32 743.321 73.416 741.593 73.464C739.889 73.512 738.101 73.536 736.229 73.536H733.277V68.748ZM733.277 50.64H749.081V55.284H739.073V71.088H733.277V50.64Z" fill="black"/>
<path d="M60.192 64.104H70.496V72.04H60.192V64.104ZM45.024 35.88H55.2V38.952H75.552V35.88H85.792V56.168H45.024V35.88ZM55.2 46.376V48.68H75.552V46.376H55.2ZM38.24 58.344H92.576V66.408H38.24V58.344ZM44.256 69.032H86.176V85.288H54.496V89.704H44.32V78.312H76V76.456H44.256V69.032ZM44.32 87.208H87.648V94.824H44.32V87.208ZM108.379 38.056H118.619V44.776H127.387V38.056H137.499V66.472H108.379V38.056ZM118.619 52.52V58.28H127.387V52.52H118.619ZM135.323 48.104H148.635V56.36H135.323V48.104ZM146.459 35.048H156.827V67.944H146.459V35.048ZM116.187 70.248H126.427V74.6H146.587V70.248H156.827V94.376H116.187V70.248ZM126.427 82.472V86.248H146.587V82.472H126.427ZM213.846 35.048H224.214V77.8H213.846V35.048ZM183.446 85.992H225.558V94.184H183.446V85.992ZM183.446 73.576H193.75V89.512H183.446V73.576ZM191.254 38.632C194.369 38.632 197.185 39.2933 199.702 40.616C202.219 41.9387 204.225 43.7733 205.718 46.12C207.211 48.424 207.958 51.0907 207.958 54.12C207.958 57.064 207.211 59.7093 205.718 62.056C204.225 64.4027 202.219 66.2587 199.702 67.624C197.185 68.9467 194.369 69.608 191.254 69.608C188.139 69.608 185.323 68.9467 182.806 67.624C180.289 66.2587 178.283 64.4027 176.79 62.056C175.297 59.7093 174.55 57.064 174.55 54.12C174.55 51.0907 175.297 48.424 176.79 46.12C178.283 43.7733 180.289 41.9387 182.806 40.616C185.323 39.2933 188.139 38.632 191.254 38.632ZM191.254 47.528C190.017 47.528 188.886 47.784 187.862 48.296C186.881 48.7653 186.091 49.4907 185.494 50.472C184.939 51.4107 184.662 52.6267 184.662 54.12C184.662 55.5707 184.939 56.7867 185.494 57.768C186.091 58.7067 186.881 59.432 187.862 59.944C188.886 60.4133 190.017 60.648 191.254 60.648C192.491 60.648 193.601 60.4133 194.582 59.944C195.606 59.432 196.395 58.7067 196.95 57.768C197.547 56.7867 197.846 55.5707 197.846 54.12C197.846 52.6267 197.547 51.4107 196.95 50.472C196.395 49.4907 195.606 48.7653 194.582 48.296C193.601 47.784 192.491 47.528 191.254 47.528ZM283.921 34.984H293.713V95.016H283.921V34.984ZM262.225 56.36H275.537V64.616H262.225V56.36ZM271.313 35.88H280.913V92.648H271.313V35.88ZM243.217 73.896H247.569C250.257 73.896 252.71 73.8747 254.929 73.832C257.19 73.7467 259.345 73.5973 261.393 73.384C263.484 73.1707 265.617 72.872 267.793 72.488L268.561 80.808C266.342 81.2347 264.145 81.5547 261.969 81.768C259.836 81.9813 257.596 82.1307 255.249 82.216C252.902 82.3013 250.342 82.344 247.569 82.344H243.217V73.896ZM243.217 41.448H266.321V49.576H253.393V77.544H243.217V41.448ZM372.162 34.92H382.53V95.208H372.162V34.92ZM349.826 38.888C352.898 38.888 355.65 39.784 358.082 41.576C360.514 43.3253 362.413 45.8213 363.778 49.064C365.186 52.3067 365.89 56.1467 365.89 60.584C365.89 65.064 365.186 68.9467 363.778 72.232C362.413 75.4747 360.514 77.992 358.082 79.784C355.65 81.5333 352.898 82.408 349.826 82.408C346.754 82.408 344.002 81.5333 341.57 79.784C339.138 77.992 337.218 75.4747 335.81 72.232C334.445 68.9467 333.762 65.064 333.762 60.584C333.762 56.1467 334.445 52.3067 335.81 49.064C337.218 45.8213 339.138 43.3253 341.57 41.576C344.002 39.784 346.754 38.888 349.826 38.888ZM349.826 48.296C348.589 48.296 347.501 48.744 346.562 49.64C345.666 50.4933 344.962 51.8373 344.45 53.672C343.938 55.464 343.682 57.768 343.682 60.584C343.682 63.4 343.938 65.7253 344.45 67.56C344.962 69.3947 345.666 70.76 346.562 71.656C347.501 72.552 348.589 73 349.826 73C351.063 73 352.13 72.552 353.026 71.656C353.965 70.76 354.69 69.3947 355.202 67.56C355.714 65.7253 355.97 63.4 355.97 60.584C355.97 57.768 355.714 55.464 355.202 53.672C354.69 51.8373 353.965 50.4933 353.026 49.64C352.13 48.744 351.063 48.296 349.826 48.296ZM440.509 34.984H450.877V64.616H440.509V34.984ZM431.421 46.824H441.661V54.952H431.421V46.824ZM419.709 36.84H430.589C430.589 42.1733 429.629 46.8027 427.709 50.728C425.789 54.6107 422.866 57.8533 418.941 60.456C415.058 63.016 410.13 64.9787 404.157 66.344L400.701 58.28C405.437 57.2987 409.192 55.9973 411.965 54.376C414.738 52.7547 416.722 50.92 417.917 48.872C419.112 46.7813 419.709 44.5627 419.709 42.216V36.84ZM404.349 36.84H428.413V44.904H404.349V36.84ZM410.621 66.728H450.877V84.328H421.053V90.536H410.685V76.776H440.509V74.728H410.621V66.728ZM410.685 86.44H451.645V94.504H410.685V86.44ZM490.67 63.592H545.006V71.72H490.67V63.592ZM512.558 56.552H522.862V67.112H512.558V56.552ZM512.43 36.136H521.262V37.48C521.262 39.6987 520.963 41.8533 520.366 43.944C519.769 45.992 518.83 47.912 517.55 49.704C516.313 51.4533 514.734 53.032 512.814 54.44C510.894 55.848 508.611 57.064 505.966 58.088C503.321 59.0693 500.291 59.7947 496.878 60.264L493.102 52.2C496.089 51.8587 498.67 51.3253 500.846 50.6C503.065 49.8747 504.899 49.0213 506.35 48.04C507.843 47.016 509.038 45.928 509.934 44.776C510.83 43.5813 511.47 42.3653 511.854 41.128C512.238 39.8907 512.43 38.6747 512.43 37.48V36.136ZM514.158 36.136H522.99V37.48C522.99 38.76 523.161 40.04 523.502 41.32C523.886 42.5573 524.505 43.752 525.358 44.904C526.254 46.056 527.427 47.1227 528.878 48.104C530.371 49.0853 532.227 49.9387 534.446 50.664C536.665 51.3467 539.289 51.8587 542.318 52.2L538.542 60.264C535.129 59.7947 532.099 59.0693 529.454 58.088C526.809 57.1067 524.505 55.9333 522.542 54.568C520.622 53.16 519.043 51.5813 517.806 49.832C516.569 48.0827 515.651 46.184 515.054 44.136C514.457 42.0453 514.158 39.8267 514.158 37.48V36.136ZM496.686 75.048H538.542V95.08H528.238V83.112H496.686V75.048ZM560.489 40.36H570.665V75.048H560.489V40.36ZM560.489 72.488H564.905C568.574 72.488 571.966 72.4027 575.081 72.232C578.196 72.0187 581.396 71.592 584.681 70.952L585.961 79.464C582.548 80.1893 579.156 80.6587 575.785 80.872C572.457 81.0853 568.83 81.192 564.905 81.192H560.489V72.488ZM600.809 34.984H610.601V95.016H600.809V34.984ZM577.193 53.288H590.185V61.544H577.193V53.288ZM588.073 35.816H597.673V92.584H588.073V35.816ZM658.266 47.336H696.154V81.448H685.786V55.464H658.266V47.336ZM688.41 61.864V69.672L657.626 71.848L656.474 63.144L688.41 61.864ZM726.101 47.336H763.989V81.448H753.621V55.464H726.101V47.336ZM756.245 61.864V69.672L725.461 71.848L724.309 63.144L756.245 61.864Z" fill="#FF0000" fill-opacity="0.09"/>
</g>
<defs>
<clipPath id="clip0_8_18">
<rect width="810" height="130" fill="white"/>
</clipPath>
</defs>
</svg>
