<svg width="810" height="130" viewBox="0 0 810 130" fill="none" xmlns="http://www.w3.org/2000/svg">
<g clip-path="url(#clip0_4_3)">
<rect width="810" height="130" fill="#FAFAFA"/>
<path d="M31.192 69.992H41.496V78.504H31.192V69.992ZM9.24 64.232H63.576V72.36H9.24V64.232ZM15.256 76.52H57.112V95.08H46.808V84.584H15.256V76.52ZM31.192 35.24H41.496V44.328H31.192V35.24ZM30.552 44.968H39.64V46.312C39.64 48.488 39.1493 50.5147 38.168 52.392C37.2293 54.2693 35.7147 55.9547 33.624 57.448C31.576 58.8987 28.9307 60.0933 25.688 61.032C22.488 61.928 18.6053 62.504 14.04 62.76L11.032 55.08C15.0427 54.8667 18.3067 54.4613 20.824 53.864C23.384 53.2667 25.368 52.5413 26.776 51.688C28.184 50.792 29.1653 49.8747 29.72 48.936C30.2747 47.9973 30.552 47.1227 30.552 46.312V44.968ZM33.048 44.968H42.136V46.312C42.136 47.1227 42.4133 47.9973 42.968 48.936C43.5227 49.8747 44.504 50.792 45.912 51.688C47.32 52.5413 49.2827 53.2667 51.8 53.864C54.36 54.4613 57.6453 54.8667 61.656 55.08L58.648 62.76C54.1253 62.504 50.2427 61.928 47 61.032C43.7573 60.0933 41.0907 58.8987 39 57.448C36.952 55.9547 35.4373 54.2693 34.456 52.392C33.5173 50.5147 33.048 48.488 33.048 46.312V44.968ZM14.232 40.232H58.52V48.104H14.232V40.232ZM83.027 38.248H120.723V46.376H83.027V38.248ZM77.139 63.72H131.475V71.976H77.139V63.72ZM98.707 69.608H109.139V95.08H98.707V69.608ZM115.347 38.248H125.523V43.624C125.523 45.8427 125.48 48.1893 125.395 50.664C125.352 53.096 125.16 55.784 124.819 58.728C124.52 61.672 123.966 64.9573 123.155 68.584L113.043 67.432C114.195 62.3547 114.856 57.9173 115.027 54.12C115.24 50.3227 115.347 46.824 115.347 43.624V38.248ZM154.943 74.75V73.8182C154.943 71.2424 155.155 69.1894 155.579 67.6591C156.018 66.1288 156.655 64.9015 157.488 63.9773C158.322 63.0379 159.337 62.1818 160.534 61.4091C161.488 60.803 162.337 60.1894 163.079 59.5682C163.837 58.9318 164.435 58.25 164.875 57.5227C165.314 56.7955 165.534 55.9697 165.534 55.0455C165.534 54.1515 165.322 53.3636 164.897 52.6818C164.473 52 163.89 51.4773 163.147 51.1136C162.42 50.7348 161.609 50.5455 160.715 50.5455C159.822 50.5455 158.981 50.75 158.193 51.1591C157.42 51.5682 156.784 52.1515 156.284 52.9091C155.799 53.6515 155.549 54.553 155.534 55.6136H145.079C145.125 52.4318 145.859 49.8258 147.284 47.7955C148.723 45.7652 150.625 44.2652 152.988 43.2955C155.352 42.3106 157.958 41.8182 160.806 41.8182C163.928 41.8182 166.7 42.303 169.125 43.2727C171.564 44.2424 173.481 45.6742 174.875 47.5682C176.268 49.4621 176.965 51.7803 176.965 54.5227C176.965 56.3258 176.662 57.9167 176.056 59.2955C175.45 60.6742 174.602 61.8939 173.511 62.9545C172.435 64 171.17 64.9545 169.715 65.8182C168.579 66.4848 167.632 67.1818 166.875 67.9091C166.132 68.6364 165.572 69.4697 165.193 70.4091C164.814 71.3333 164.625 72.4697 164.625 73.8182V74.75H154.943ZM159.965 89.6591C158.329 89.6591 156.928 89.0833 155.761 87.9318C154.609 86.7803 154.041 85.3864 154.056 83.75C154.041 82.1439 154.609 80.7727 155.761 79.6364C156.928 78.4848 158.329 77.9091 159.965 77.9091C161.526 77.9091 162.897 78.4848 164.079 79.6364C165.261 80.7727 165.859 82.1439 165.875 83.75C165.859 84.8409 165.572 85.8333 165.011 86.7273C164.465 87.6212 163.746 88.3333 162.852 88.8636C161.973 89.3939 161.011 89.6591 159.965 89.6591ZM229.959 38.888C233.074 38.888 235.826 39.784 238.215 41.576C240.647 43.3253 242.567 45.8213 243.975 49.064C245.383 52.3067 246.087 56.168 246.087 60.648C246.087 65.0853 245.383 68.9467 243.975 72.232C242.567 75.4747 240.647 77.992 238.215 79.784C235.826 81.5333 233.074 82.408 229.959 82.408C226.845 82.408 224.071 81.5333 221.639 79.784C219.207 77.992 217.287 75.4747 215.879 72.232C214.471 68.9467 213.767 65.0853 213.767 60.648C213.767 56.168 214.471 52.3067 215.879 49.064C217.287 45.8213 219.207 43.3253 221.639 41.576C224.071 39.784 226.845 38.888 229.959 38.888ZM229.959 48.296C228.722 48.296 227.634 48.744 226.695 49.64C225.757 50.4933 225.031 51.8373 224.519 53.672C224.007 55.464 223.751 57.768 223.751 60.584C223.751 63.4 224.007 65.7253 224.519 67.56C225.031 69.3947 225.757 70.76 226.695 71.656C227.634 72.552 228.722 73 229.959 73C231.197 73 232.285 72.552 233.223 71.656C234.162 70.76 234.887 69.3947 235.399 67.56C235.911 65.7253 236.167 63.4 236.167 60.584C236.167 57.768 235.911 55.464 235.399 53.672C234.887 51.8373 234.162 50.4933 233.223 49.64C232.285 48.744 231.197 48.296 229.959 48.296ZM258.567 48.36H268.871V56.808H258.567V48.36ZM258.567 65.832H268.871V74.216H258.567V65.832ZM250.951 35.048H261.319V95.08H250.951V35.048ZM287.554 38.248H325.25V46.376H287.554V38.248ZM281.666 63.72H336.002V71.976H281.666V63.72ZM303.234 69.608H313.666V95.08H303.234V69.608ZM319.874 38.248H330.05V43.624C330.05 45.8427 330.008 48.1893 329.922 50.664C329.88 53.096 329.688 55.784 329.346 58.728C329.048 61.672 328.493 64.9573 327.682 68.584L317.57 67.432C318.722 62.3547 319.384 57.9173 319.554 54.12C319.768 50.3227 319.874 46.824 319.874 43.624V38.248ZM359.47 74.75V73.8182C359.47 71.2424 359.682 69.1894 360.107 67.6591C360.546 66.1288 361.182 64.9015 362.016 63.9773C362.849 63.0379 363.864 62.1818 365.061 61.4091C366.016 60.803 366.864 60.1894 367.607 59.5682C368.364 58.9318 368.963 58.25 369.402 57.5227C369.841 56.7955 370.061 55.9697 370.061 55.0455C370.061 54.1515 369.849 53.3636 369.425 52.6818C369.001 52 368.417 51.4773 367.675 51.1136C366.948 50.7348 366.137 50.5455 365.243 50.5455C364.349 50.5455 363.508 50.75 362.72 51.1591C361.948 51.5682 361.311 52.1515 360.811 52.9091C360.326 53.6515 360.076 54.553 360.061 55.6136H349.607C349.652 52.4318 350.387 49.8258 351.811 47.7955C353.251 45.7652 355.152 44.2652 357.516 43.2955C359.879 42.3106 362.485 41.8182 365.334 41.8182C368.455 41.8182 371.228 42.303 373.652 43.2727C376.091 44.2424 378.008 45.6742 379.402 47.5682C380.796 49.4621 381.493 51.7803 381.493 54.5227C381.493 56.3258 381.19 57.9167 380.584 59.2955C379.978 60.6742 379.129 61.8939 378.038 62.9545C376.963 64 375.698 64.9545 374.243 65.8182C373.107 66.4848 372.16 67.1818 371.402 67.9091C370.66 68.6364 370.099 69.4697 369.72 70.4091C369.341 71.3333 369.152 72.4697 369.152 73.8182V74.75H359.47ZM364.493 89.6591C362.857 89.6591 361.455 89.0833 360.288 87.9318C359.137 86.7803 358.569 85.3864 358.584 83.75C358.569 82.1439 359.137 80.7727 360.288 79.6364C361.455 78.4848 362.857 77.9091 364.493 77.9091C366.054 77.9091 367.425 78.4848 368.607 79.6364C369.788 80.7727 370.387 82.1439 370.402 83.75C370.387 84.8409 370.099 85.8333 369.538 86.7273C368.993 87.6212 368.273 88.3333 367.379 88.8636C366.501 89.3939 365.538 89.6591 364.493 89.6591ZM424.887 49H466.743V57.128H424.887V49ZM424.887 35.88H435.191V52.712H424.887V35.88ZM418.423 62.056H472.759V70.12H418.423V62.056ZM440.375 53.864H450.679V65.64H440.375V53.864ZM445.303 72.616C451.831 72.616 456.951 73.5973 460.663 75.56C464.418 77.5227 466.295 80.296 466.295 83.88C466.295 87.464 464.418 90.2373 460.663 92.2C456.951 94.1627 451.831 95.144 445.303 95.144C438.775 95.144 433.634 94.1627 429.879 92.2C426.167 90.2373 424.311 87.464 424.311 83.88C424.311 80.296 426.167 77.5227 429.879 75.56C433.634 73.5973 438.775 72.616 445.303 72.616ZM445.303 80.424C442.871 80.424 440.866 80.5307 439.287 80.744C437.751 80.9573 436.599 81.32 435.831 81.832C435.106 82.344 434.743 83.0267 434.743 83.88C434.743 84.6907 435.106 85.352 435.831 85.864C436.599 86.376 437.751 86.76 439.287 87.016C440.866 87.2293 442.871 87.336 445.303 87.336C447.735 87.336 449.719 87.2293 451.255 87.016C452.834 86.76 453.986 86.376 454.711 85.864C455.479 85.352 455.863 84.6907 455.863 83.88C455.863 83.0267 455.479 82.344 454.711 81.832C453.986 81.32 452.834 80.9573 451.255 80.744C449.719 80.5307 447.735 80.424 445.303 80.424ZM492.082 38.248H529.778V46.376H492.082V38.248ZM486.194 63.72H540.53V71.976H486.194V63.72ZM507.762 69.608H518.194V95.08H507.762V69.608ZM524.402 38.248H534.578V43.624C534.578 45.8427 534.535 48.1893 534.45 50.664C534.407 53.096 534.215 55.784 533.874 58.728C533.575 61.672 533.021 64.9573 532.21 68.584L522.098 67.432C523.25 62.3547 523.911 57.9173 524.082 54.12C524.295 50.3227 524.402 46.824 524.402 43.624V38.248ZM563.998 74.75V73.8182C563.998 71.2424 564.21 69.1894 564.634 67.6591C565.073 66.1288 565.71 64.9015 566.543 63.9773C567.376 63.0379 568.392 62.1818 569.589 61.4091C570.543 60.803 571.392 60.1894 572.134 59.5682C572.892 58.9318 573.49 58.25 573.93 57.5227C574.369 56.7955 574.589 55.9697 574.589 55.0455C574.589 54.1515 574.376 53.3636 573.952 52.6818C573.528 52 572.945 51.4773 572.202 51.1136C571.475 50.7348 570.664 50.5455 569.77 50.5455C568.876 50.5455 568.036 50.75 567.248 51.1591C566.475 51.5682 565.839 52.1515 565.339 52.9091C564.854 53.6515 564.604 54.553 564.589 55.6136H554.134C554.18 52.4318 554.914 49.8258 556.339 47.7955C557.778 45.7652 559.68 44.2652 562.043 43.2955C564.407 42.3106 567.013 41.8182 569.861 41.8182C572.983 41.8182 575.755 42.303 578.18 43.2727C580.619 44.2424 582.536 45.6742 583.93 47.5682C585.323 49.4621 586.02 51.7803 586.02 54.5227C586.02 56.3258 585.717 57.9167 585.111 59.2955C584.505 60.6742 583.657 61.8939 582.566 62.9545C581.49 64 580.225 64.9545 578.77 65.8182C577.634 66.4848 576.687 67.1818 575.93 67.9091C575.187 68.6364 574.626 69.4697 574.248 70.4091C573.869 71.3333 573.68 72.4697 573.68 73.8182V74.75H563.998ZM569.02 89.6591C567.384 89.6591 565.983 89.0833 564.816 87.9318C563.664 86.7803 563.096 85.3864 563.111 83.75C563.096 82.1439 563.664 80.7727 564.816 79.6364C565.983 78.4848 567.384 77.9091 569.02 77.9091C570.581 77.9091 571.952 78.4848 573.134 79.6364C574.316 80.7727 574.914 82.1439 574.93 83.75C574.914 84.8409 574.626 85.8333 574.066 86.7273C573.52 87.6212 572.801 88.3333 571.907 88.8636C571.028 89.3939 570.066 89.6591 569.02 89.6591ZM624.295 40.168H633.959V53.032H638.887V40.168H648.423V81.256H624.295V40.168ZM633.959 60.968V73.128H638.887V60.968H633.959ZM664.935 34.984H674.727V95.016H664.935V34.984ZM658.791 57.448H667.879V65.64H658.791V57.448ZM651.879 35.752H661.479V92.52H651.879V35.752ZM696.609 38.248H734.305V46.376H696.609V38.248ZM690.721 63.72H745.057V71.976H690.721V63.72ZM712.289 69.608H722.721V95.08H712.289V69.608ZM728.929 38.248H739.105V43.624C739.105 45.8427 739.063 48.1893 738.977 50.664C738.935 53.096 738.743 55.784 738.401 58.728C738.103 61.672 737.548 64.9573 736.737 68.584L726.625 67.432C727.777 62.3547 728.439 57.9173 728.609 54.12C728.823 50.3227 728.929 46.824 728.929 43.624V38.248ZM768.525 74.75V73.8182C768.525 71.2424 768.737 69.1894 769.162 67.6591C769.601 66.1288 770.237 64.9015 771.071 63.9773C771.904 63.0379 772.919 62.1818 774.116 61.4091C775.071 60.803 775.919 60.1894 776.662 59.5682C777.419 58.9318 778.018 58.25 778.457 57.5227C778.896 56.7955 779.116 55.9697 779.116 55.0455C779.116 54.1515 778.904 53.3636 778.48 52.6818C778.056 52 777.472 51.4773 776.73 51.1136C776.003 50.7348 775.192 50.5455 774.298 50.5455C773.404 50.5455 772.563 50.75 771.775 51.1591C771.003 51.5682 770.366 52.1515 769.866 52.9091C769.381 53.6515 769.131 54.553 769.116 55.6136H758.662C758.707 52.4318 759.442 49.8258 760.866 47.7955C762.306 45.7652 764.207 44.2652 766.571 43.2955C768.934 42.3106 771.54 41.8182 774.389 41.8182C777.51 41.8182 780.283 42.303 782.707 43.2727C785.146 44.2424 787.063 45.6742 788.457 47.5682C789.851 49.4621 790.548 51.7803 790.548 54.5227C790.548 56.3258 790.245 57.9167 789.639 59.2955C789.033 60.6742 788.184 61.8939 787.093 62.9545C786.018 64 784.753 64.9545 783.298 65.8182C782.162 66.4848 781.215 67.1818 780.457 67.9091C779.715 68.6364 779.154 69.4697 778.775 70.4091C778.396 71.3333 778.207 72.4697 778.207 73.8182V74.75H768.525ZM773.548 89.6591C771.912 89.6591 770.51 89.0833 769.343 87.9318C768.192 86.7803 767.624 85.3864 767.639 83.75C767.624 82.1439 768.192 80.7727 769.343 79.6364C770.51 78.4848 771.912 77.9091 773.548 77.9091C775.109 77.9091 776.48 78.4848 777.662 79.6364C778.843 80.7727 779.442 82.1439 779.457 83.75C779.442 84.8409 779.154 85.8333 778.593 86.7273C778.048 87.6212 777.328 88.3333 776.434 88.8636C775.556 89.3939 774.593 89.6591 773.548 89.6591Z" fill="#FF0000" fill-opacity="0.09"/>
<path d="M123.208 66.416C125.48 66.416 127.512 67.088 129.304 68.432C131.096 69.744 132.504 71.616 133.528 74.048C134.552 76.48 135.064 79.36 135.064 82.688C135.064 86.048 134.552 88.96 133.528 91.424C132.504 93.856 131.096 95.744 129.304 97.088C127.512 98.4 125.48 99.056 123.208 99.056C120.936 99.056 118.904 98.4 117.112 97.088C115.32 95.744 113.912 93.856 112.888 91.424C111.864 88.96 111.352 86.048 111.352 82.688C111.352 79.36 111.864 76.48 112.888 74.048C113.912 71.616 115.32 69.744 117.112 68.432C118.904 67.088 120.936 66.416 123.208 66.416ZM123.208 73.472C122.312 73.472 121.528 73.808 120.856 74.48C120.184 75.12 119.656 76.128 119.272 77.504C118.92 78.848 118.744 80.576 118.744 82.688C118.744 84.8 118.92 86.544 119.272 87.92C119.656 89.296 120.184 90.32 120.856 90.992C121.528 91.664 122.312 92 123.208 92C124.136 92 124.92 91.664 125.56 90.992C126.232 90.32 126.744 89.296 127.096 87.92C127.48 86.544 127.672 84.8 127.672 82.688C127.672 80.576 127.48 78.848 127.096 77.504C126.744 76.128 126.232 75.12 125.56 74.48C124.92 73.808 124.136 73.472 123.208 73.472ZM141.16 63.44H148.888V108.656H141.16V63.44ZM132.856 79.184H144.376V85.376H132.856V79.184ZM177.684 76.928H189.204V83.12H177.684V76.928ZM164.676 66.704H170.916V72.416C170.916 75.424 170.708 78.336 170.292 81.152C169.876 83.936 169.188 86.528 168.228 88.928C167.3 91.328 166.052 93.456 164.484 95.312C162.948 97.136 161.028 98.608 158.724 99.728L153.924 93.536C155.972 92.608 157.684 91.408 159.06 89.936C160.436 88.432 161.54 86.736 162.372 84.848C163.204 82.96 163.796 80.96 164.148 78.848C164.5 76.736 164.676 74.592 164.676 72.416V66.704ZM166.308 66.704H172.452V72.416C172.452 74.592 172.612 76.72 172.932 78.8C173.252 80.88 173.796 82.832 174.564 84.656C175.332 86.448 176.372 88.048 177.684 89.456C179.028 90.864 180.692 92 182.676 92.864L178.068 99.008C175.796 97.92 173.892 96.496 172.356 94.736C170.852 92.944 169.652 90.896 168.756 88.592C167.892 86.256 167.268 83.728 166.884 81.008C166.5 78.256 166.308 75.392 166.308 72.416V66.704ZM185.316 63.44H193.044V108.656H185.316V63.44ZM208.449 86.384H216.129V96.992H208.449V86.384ZM212.193 65.984C214.529 65.984 216.625 66.48 218.481 67.472C220.369 68.432 221.857 69.776 222.945 71.504C224.065 73.2 224.625 75.136 224.625 77.312C224.625 79.488 224.065 81.44 222.945 83.168C221.857 84.896 220.369 86.256 218.481 87.248C216.625 88.208 214.529 88.688 212.193 88.688C209.857 88.688 207.745 88.208 205.857 87.248C204.001 86.256 202.513 84.896 201.393 83.168C200.305 81.44 199.761 79.488 199.761 77.312C199.761 75.136 200.305 73.2 201.393 71.504C202.513 69.776 204.001 68.432 205.857 67.472C207.745 66.48 209.857 65.984 212.193 65.984ZM212.193 72.56C211.265 72.56 210.433 72.736 209.697 73.088C208.961 73.44 208.369 73.968 207.921 74.672C207.505 75.376 207.297 76.256 207.297 77.312C207.297 78.368 207.505 79.264 207.921 80C208.369 80.704 208.961 81.232 209.697 81.584C210.433 81.936 211.265 82.112 212.193 82.112C213.121 82.112 213.953 81.936 214.689 81.584C215.425 81.232 216.001 80.704 216.417 80C216.865 79.264 217.089 78.368 217.089 77.312C217.089 76.256 216.865 75.376 216.417 74.672C216.001 73.968 215.425 73.44 214.689 73.088C213.953 72.736 213.121 72.56 212.193 72.56ZM227.361 63.488H235.089V108.512H227.361V63.488ZM232.641 80.624H240.369V87.008H232.641V80.624ZM199.425 100.016L198.561 93.824C201.089 93.824 203.857 93.824 206.865 93.824C209.905 93.792 212.993 93.696 216.129 93.536C219.297 93.376 222.353 93.104 225.297 92.72L225.873 98.288C222.769 98.896 219.649 99.328 216.513 99.584C213.409 99.808 210.401 99.936 207.489 99.968C204.577 100 201.889 100.016 199.425 100.016ZM252.616 99.2273L252.463 101.119C252.327 102.687 252.048 104.216 251.628 105.705C251.219 107.205 250.781 108.551 250.315 109.744C249.849 110.938 249.48 111.864 249.207 112.523H243.957C244.139 111.864 244.384 110.938 244.69 109.744C245.009 108.551 245.304 107.205 245.577 105.705C245.849 104.205 246.003 102.682 246.037 101.136L246.071 99.2273H252.616ZM442.789 86.096H483.541V92.192H442.789V86.096ZM447.541 101.744H478.933V107.888H447.541V101.744ZM447.541 94.688H455.269V103.76H447.541V94.688ZM463.189 64.736C466.485 64.736 469.365 65.12 471.829 65.888C474.325 66.656 476.261 67.744 477.637 69.152C479.045 70.56 479.749 72.224 479.749 74.144C479.749 76.096 479.045 77.776 477.637 79.184C476.261 80.592 474.325 81.68 471.829 82.448C469.365 83.216 466.485 83.6 463.189 83.6C459.893 83.6 456.997 83.216 454.501 82.448C452.037 81.68 450.101 80.592 448.693 79.184C447.317 77.776 446.629 76.096 446.629 74.144C446.629 72.224 447.317 70.56 448.693 69.152C450.101 67.744 452.037 66.656 454.501 65.888C456.997 65.12 459.893 64.736 463.189 64.736ZM463.189 70.832C461.365 70.832 459.813 70.96 458.533 71.216C457.253 71.44 456.277 71.792 455.605 72.272C454.965 72.752 454.645 73.376 454.645 74.144C454.645 74.912 454.965 75.552 455.605 76.064C456.277 76.544 457.253 76.912 458.533 77.168C459.813 77.392 461.365 77.504 463.189 77.504C465.045 77.504 466.597 77.392 467.845 77.168C469.125 76.912 470.085 76.544 470.725 76.064C471.397 75.552 471.733 74.912 471.733 74.144C471.733 73.376 471.397 72.752 470.725 72.272C470.085 71.792 469.125 71.44 467.845 71.216C466.597 70.96 465.045 70.832 463.189 70.832ZM527.738 63.44H535.466V108.656H527.738V63.44ZM520.73 80.336H529.322V86.528H520.73V80.336ZM507.098 75.728H513.098V77.216C513.098 79.584 512.874 81.952 512.426 84.32C511.978 86.656 511.258 88.88 510.266 90.992C509.306 93.104 508.042 94.976 506.474 96.608C504.938 98.24 503.082 99.52 500.906 100.448L496.826 94.496C498.746 93.632 500.362 92.544 501.674 91.232C502.986 89.92 504.042 88.48 504.842 86.912C505.642 85.344 506.218 83.728 506.57 82.064C506.922 80.4 507.098 78.784 507.098 77.216V75.728ZM508.826 75.728H514.826V77.216C514.826 78.688 515.002 80.224 515.354 81.824C515.706 83.424 516.282 84.992 517.082 86.528C517.882 88.032 518.938 89.424 520.25 90.704C521.562 91.952 523.178 92.992 525.098 93.824L521.114 99.68C518.906 98.784 517.018 97.552 515.45 95.984C513.914 94.384 512.65 92.576 511.658 90.56C510.666 88.512 509.946 86.352 509.498 84.08C509.05 81.808 508.826 79.52 508.826 77.216V75.728ZM498.506 70.592H523.226V76.64H498.506V70.592ZM507.098 64.64H514.826V73.664H507.098V64.64ZM561.814 64.256C565.174 64.256 568.086 64.624 570.55 65.36C573.046 66.064 574.966 67.088 576.31 68.432C577.686 69.744 578.374 71.328 578.374 73.184C578.374 75.008 577.686 76.592 576.31 77.936C574.966 79.28 573.046 80.32 570.55 81.056C568.086 81.76 565.174 82.112 561.814 82.112C558.486 82.112 555.574 81.76 553.078 81.056C550.582 80.32 548.646 79.28 547.27 77.936C545.926 76.592 545.254 75.008 545.254 73.184C545.254 71.328 545.926 69.744 547.27 68.432C548.646 67.088 550.582 66.064 553.078 65.36C555.574 64.624 558.486 64.256 561.814 64.256ZM561.814 70.16C559.958 70.16 558.39 70.272 557.11 70.496C555.83 70.688 554.87 71.008 554.23 71.456C553.59 71.872 553.27 72.448 553.27 73.184C553.27 73.888 553.59 74.464 554.23 74.912C554.87 75.36 555.83 75.696 557.11 75.92C558.39 76.112 559.958 76.208 561.814 76.208C563.702 76.208 565.27 76.112 566.518 75.92C567.798 75.696 568.758 75.36 569.398 74.912C570.038 74.464 570.358 73.888 570.358 73.184C570.358 72.448 570.038 71.872 569.398 71.456C568.758 71.008 567.798 70.688 566.518 70.496C565.27 70.272 563.702 70.16 561.814 70.16ZM546.022 92.48H577.366V108.128H546.022V92.48ZM569.782 98.528H553.606V102.08H569.782V98.528ZM541.414 83.984H582.166V90.032H541.414V83.984ZM615.475 63.44H623.251V108.656H615.475V63.44ZM598.723 66.416C601.027 66.416 603.091 67.088 604.915 68.432C606.739 69.744 608.163 71.616 609.187 74.048C610.243 76.48 610.771 79.36 610.771 82.688C610.771 86.048 610.243 88.96 609.187 91.424C608.163 93.856 606.739 95.744 604.915 97.088C603.091 98.4 601.027 99.056 598.723 99.056C596.419 99.056 594.355 98.4 592.531 97.088C590.707 95.744 589.267 93.856 588.211 91.424C587.187 88.96 586.675 86.048 586.675 82.688C586.675 79.36 587.187 76.48 588.211 74.048C589.267 71.616 590.707 69.744 592.531 68.432C594.355 67.088 596.419 66.416 598.723 66.416ZM598.723 73.472C597.795 73.472 596.979 73.808 596.275 74.48C595.603 75.12 595.075 76.128 594.691 77.504C594.307 78.848 594.115 80.576 594.115 82.688C594.115 84.8 594.307 86.544 594.691 87.92C595.075 89.296 595.603 90.32 596.275 90.992C596.979 91.664 597.795 92 598.723 92C599.651 92 600.451 91.664 601.123 90.992C601.827 90.32 602.371 89.296 602.755 87.92C603.139 86.544 603.331 84.8 603.331 82.688C603.331 80.576 603.139 78.848 602.755 77.504C602.371 76.128 601.827 75.12 601.123 74.48C600.451 73.808 599.651 73.472 598.723 73.472ZM639.999 70.976H646.143V74.816C646.143 77.536 645.919 80.192 645.471 82.784C645.023 85.376 644.303 87.808 643.311 90.08C642.319 92.352 641.023 94.352 639.423 96.08C637.823 97.808 635.871 99.184 633.567 100.208L629.199 94.112C631.215 93.216 632.911 92.064 634.287 90.656C635.695 89.248 636.815 87.68 637.647 85.952C638.479 84.224 639.071 82.416 639.423 80.528C639.807 78.608 639.999 76.704 639.999 74.816V70.976ZM641.775 70.976H647.871V74.816C647.871 76.576 648.047 78.368 648.399 80.192C648.783 81.984 649.375 83.696 650.175 85.328C651.007 86.96 652.095 88.432 653.439 89.744C654.815 91.056 656.511 92.128 658.527 92.96L654.351 99.056C652.047 98.096 650.095 96.784 648.495 95.12C646.895 93.456 645.599 91.552 644.607 89.408C643.615 87.232 642.895 84.912 642.447 82.448C641.999 79.952 641.775 77.408 641.775 74.816V70.976ZM631.167 67.664H656.511V74H631.167V67.664ZM659.631 63.536H667.407V108.56H659.631V63.536ZM681.408 93.3125V92.6136C681.408 90.6818 681.567 89.142 681.885 87.9943C682.214 86.8466 682.692 85.9261 683.317 85.233C683.942 84.5284 684.703 83.8864 685.601 83.3068C686.317 82.8523 686.953 82.392 687.51 81.9261C688.078 81.4489 688.527 80.9375 688.857 80.392C689.186 79.8466 689.351 79.2273 689.351 78.5341C689.351 77.8636 689.192 77.2727 688.874 76.7614C688.555 76.25 688.118 75.858 687.561 75.5852C687.016 75.3011 686.408 75.1591 685.737 75.1591C685.067 75.1591 684.436 75.3125 683.845 75.6193C683.266 75.9261 682.788 76.3636 682.413 76.9318C682.05 77.4886 681.862 78.1648 681.851 78.9602H674.01C674.044 76.5739 674.595 74.6193 675.663 73.0966C676.743 71.5739 678.169 70.4489 679.942 69.7216C681.714 68.983 683.669 68.6136 685.805 68.6136C688.146 68.6136 690.226 68.9773 692.044 69.7045C693.874 70.4318 695.311 71.5057 696.357 72.9261C697.402 74.3466 697.925 76.0852 697.925 78.142C697.925 79.4943 697.697 80.6875 697.243 81.7216C696.788 82.7557 696.152 83.6705 695.334 84.4659C694.527 85.25 693.578 85.9659 692.487 86.6136C691.635 87.1136 690.925 87.6364 690.357 88.1818C689.8 88.7273 689.379 89.3523 689.095 90.0568C688.811 90.75 688.669 91.6023 688.669 92.6136V93.3125H681.408ZM685.175 104.494C683.947 104.494 682.896 104.062 682.021 103.199C681.158 102.335 680.732 101.29 680.743 100.062C680.732 98.858 681.158 97.8295 682.021 96.9773C682.896 96.1136 683.947 95.6818 685.175 95.6818C686.345 95.6818 687.374 96.1136 688.26 96.9773C689.146 97.8295 689.595 98.858 689.607 100.062C689.595 100.881 689.379 101.625 688.959 102.295C688.55 102.966 688.01 103.5 687.339 103.898C686.68 104.295 685.959 104.494 685.175 104.494Z" fill="black"/>
<path d="M267.268 92.048H270.58C273.3 92.048 275.876 91.984 278.308 91.856C280.772 91.728 283.316 91.44 285.94 90.992L286.564 97.184C283.844 97.696 281.204 98.016 278.644 98.144C276.084 98.272 273.396 98.336 270.58 98.336H267.268V92.048ZM267.22 67.664H283.06V85.712H274.756V94.4H267.268V79.712H275.62V73.712H267.22V67.664ZM297.748 63.488H305.092V108.512H297.748V63.488ZM284.74 78.368H291.556V84.656H284.74V78.368ZM288.58 64.16H295.732V106.496H288.58V64.16ZM314.881 83.84H346.945V89.936H314.881V83.84ZM310.369 97.232H351.121V103.52H310.369V97.232ZM314.881 66.944H346.657V73.184H322.561V86.336H314.881V66.944ZM385.773 63.536H393.117V86.432H385.773V63.536ZM376.509 64.256H383.709V86.288H376.509V64.256ZM371.997 72.512H378.429V78.56H371.997V72.512ZM362.013 88.016H393.117V100.928H369.837V105.728H362.061V95.408H385.389V93.92H362.013V88.016ZM362.061 102.512H394.413V108.368H362.061V102.512ZM355.821 65.936H363.069V70.208H366.717V65.936H373.869V85.376H355.821V65.936ZM363.069 75.824V79.568H366.717V75.824H363.069ZM399.977 66.464H407.225V72.176H410.873V66.464H418.025V88.4H399.977V66.464ZM407.225 78.032V82.352H410.873V78.032H407.225ZM429.929 63.536H437.273V94.016H429.929V63.536ZM420.665 64.352H427.865V90.176H420.665V64.352ZM416.153 74.24H422.585V80.384H416.153V74.24ZM417.593 91.856H424.169V92.816C424.169 94.704 423.833 96.512 423.161 98.24C422.489 99.936 421.433 101.488 419.993 102.896C418.553 104.272 416.713 105.44 414.473 106.4C412.265 107.36 409.593 108.032 406.457 108.416L403.769 102.464C405.913 102.24 407.769 101.888 409.337 101.408C410.905 100.896 412.217 100.32 413.273 99.68C414.329 99.008 415.177 98.288 415.817 97.52C416.457 96.752 416.905 95.968 417.161 95.168C417.449 94.368 417.593 93.584 417.593 92.816V91.856ZM418.697 91.856H425.273V92.816C425.273 93.584 425.401 94.368 425.657 95.168C425.945 95.968 426.409 96.752 427.049 97.52C427.689 98.288 428.537 99.008 429.593 99.68C430.649 100.32 431.961 100.896 433.529 101.408C435.097 101.888 436.953 102.24 439.097 102.464L436.409 108.416C433.913 108.096 431.689 107.6 429.737 106.928C427.817 106.256 426.153 105.424 424.745 104.432C423.369 103.472 422.233 102.384 421.337 101.168C420.441 99.92 419.769 98.592 419.321 97.184C418.905 95.776 418.697 94.32 418.697 92.816V91.856Z" fill="#D60F0F"/>
<path d="M285.352 19.216H289.608V36.56H285.352V19.216ZM287.944 26.32H293.544V29.808H287.944V26.32ZM270.344 37.712H274.568V39.92H285.416V37.712H289.608V48.528H270.344V37.712ZM274.568 43.12V45.2H285.416V43.12H274.568ZM266.312 21.776H283.72V25.136H266.312V21.776ZM275.016 25.904C276.467 25.904 277.736 26.128 278.824 26.576C279.912 27.0027 280.765 27.6107 281.384 28.4C282.003 29.1893 282.312 30.1067 282.312 31.152C282.312 32.1973 282.003 33.1147 281.384 33.904C280.765 34.6933 279.912 35.312 278.824 35.76C277.736 36.1867 276.467 36.4 275.016 36.4C273.587 36.4 272.317 36.1867 271.208 35.76C270.12 35.312 269.267 34.6933 268.648 33.904C268.029 33.1147 267.72 32.1973 267.72 31.152C267.72 30.1067 268.029 29.1893 268.648 28.4C269.267 27.6107 270.12 27.0027 271.208 26.576C272.317 26.128 273.587 25.904 275.016 25.904ZM275.016 29.008C274.077 29.008 273.309 29.2 272.712 29.584C272.115 29.9467 271.816 30.4693 271.816 31.152C271.816 31.856 272.115 32.4 272.712 32.784C273.309 33.1467 274.077 33.328 275.016 33.328C275.976 33.328 276.744 33.1467 277.32 32.784C277.917 32.4 278.216 31.856 278.216 31.152C278.216 30.4693 277.917 29.9467 277.32 29.584C276.744 29.2 275.976 29.008 275.016 29.008ZM272.904 18.96H277.128V23.632H272.904V18.96ZM296.966 20.72H301.19V24.464H306.822V20.72H311.014V34.576H296.966V20.72ZM301.19 27.696V31.152H306.822V27.696H301.19ZM310.054 25.936H317.254V29.392H310.054V25.936ZM316.262 19.216H320.55V35.44H316.262V19.216ZM300.87 36.688H305.094V39.312H316.326V36.688H320.518V48.464H300.87V36.688ZM305.094 42.608V45.104H316.326V42.608H305.094ZM332.035 22.16H335.491V24.016C335.491 25.872 335.192 27.6533 334.595 29.36C333.998 31.0453 333.08 32.5173 331.843 33.776C330.627 35.0347 329.059 35.9733 327.139 36.592L325.027 33.232C326.243 32.8267 327.288 32.304 328.163 31.664C329.059 31.0027 329.784 30.256 330.339 29.424C330.915 28.592 331.342 27.7173 331.619 26.8C331.896 25.8827 332.035 24.9547 332.035 24.016V22.16ZM332.931 22.16H336.323V24.016C336.323 25.168 336.558 26.32 337.027 27.472C337.496 28.6027 338.222 29.6267 339.203 30.544C340.206 31.44 341.486 32.1547 343.043 32.688L340.963 36.048C339.128 35.4293 337.614 34.512 336.419 33.296C335.246 32.08 334.371 30.672 333.795 29.072C333.219 27.4507 332.931 25.7653 332.931 24.016V22.16ZM341.315 26.256H346.915V29.712H341.315V26.256ZM326.179 20.816H342.115V24.208H326.179V20.816ZM329.763 38.16H349.987V48.848H345.699V41.552H329.763V38.16ZM345.699 19.216H349.987V36.816H345.699V19.216ZM374.977 19.216H379.233V40.496H374.977V19.216ZM359.489 44.912H380.001V48.336H359.489V44.912ZM359.489 38.384H363.745V46.32H359.489V38.384ZM363.105 21.104C364.619 21.104 365.985 21.424 367.201 22.064C368.417 22.704 369.377 23.5893 370.081 24.72C370.806 25.8507 371.169 27.152 371.169 28.624C371.169 30.0533 370.806 31.344 370.081 32.496C369.377 33.6267 368.417 34.5227 367.201 35.184C365.985 35.824 364.619 36.144 363.105 36.144C361.59 36.144 360.225 35.824 359.009 35.184C357.793 34.5227 356.822 33.6267 356.097 32.496C355.393 31.344 355.041 30.0533 355.041 28.624C355.041 27.152 355.393 25.8507 356.097 24.72C356.822 23.5893 357.793 22.704 359.009 22.064C360.225 21.424 361.59 21.104 363.105 21.104ZM363.105 24.752C362.379 24.752 361.718 24.912 361.121 25.232C360.523 25.5307 360.054 25.968 359.713 26.544C359.371 27.0987 359.201 27.792 359.201 28.624C359.201 29.4133 359.371 30.096 359.713 30.672C360.054 31.2267 360.523 31.664 361.121 31.984C361.718 32.2827 362.379 32.432 363.105 32.432C363.83 32.432 364.491 32.2827 365.089 31.984C365.686 31.664 366.155 31.2267 366.497 30.672C366.838 30.096 367.009 29.4133 367.009 28.624C367.009 27.792 366.838 27.0987 366.497 26.544C366.155 25.968 365.686 25.5307 365.089 25.232C364.491 24.912 363.83 24.752 363.105 24.752ZM395.136 33.872H415.968V37.232H395.136V33.872ZM392 42.16H418.848V45.584H392V42.16ZM403.264 35.568H407.52V43.664H403.264V35.568ZM395.136 21.2H415.744V24.624H399.456V35.12H395.136V21.2ZM398.144 27.504H415.072V30.8H398.144V27.504ZM424.573 33.872H445.405V37.232H424.573V33.872ZM421.437 42.16H448.285V45.584H421.437V42.16ZM432.701 35.568H436.957V43.664H432.701V35.568ZM424.573 21.2H445.181V24.624H428.893V35.12H424.573V21.2ZM427.581 27.504H444.509V30.8H427.581V27.504ZM465.468 21.488H468.892V25.776C468.892 27.6107 468.732 29.4027 468.412 31.152C468.092 32.88 467.591 34.4907 466.908 35.984C466.247 37.4773 465.404 38.8107 464.38 39.984C463.356 41.136 462.151 42.0533 460.764 42.736L458.204 39.312C459.463 38.736 460.54 37.968 461.436 37.008C462.353 36.048 463.111 34.96 463.708 33.744C464.305 32.528 464.743 31.248 465.02 29.904C465.319 28.5387 465.468 27.1627 465.468 25.776V21.488ZM466.3 21.488H469.724V25.776C469.724 27.12 469.852 28.4427 470.108 29.744C470.385 31.0453 470.801 32.2827 471.356 33.456C471.932 34.608 472.647 35.6427 473.5 36.56C474.353 37.4773 475.377 38.2347 476.572 38.832L473.98 42.224C472.657 41.5413 471.505 40.6453 470.524 39.536C469.564 38.4053 468.775 37.1147 468.156 35.664C467.537 34.192 467.068 32.624 466.748 30.96C466.449 29.2747 466.3 27.5467 466.3 25.776V21.488ZM477.724 19.216H482.012V48.848H477.724V19.216ZM481.084 30.608H486.3V34.128H481.084V30.608ZM508.57 19.152H512.826V48.88H508.57V19.152ZM496.858 21.232C498.372 21.232 499.716 21.6693 500.89 22.544C502.063 23.3973 502.98 24.624 503.642 26.224C504.324 27.8027 504.666 29.6693 504.666 31.824C504.666 34 504.324 35.888 503.642 37.488C502.98 39.0667 502.063 40.2933 500.89 41.168C499.716 42.0213 498.372 42.448 496.858 42.448C495.364 42.448 494.031 42.0213 492.858 41.168C491.684 40.2933 490.756 39.0667 490.074 37.488C489.412 35.888 489.082 34 489.082 31.824C489.082 29.6693 489.412 27.8027 490.074 26.224C490.756 24.624 491.684 23.3973 492.858 22.544C494.031 21.6693 495.364 21.232 496.858 21.232ZM496.858 25.104C496.132 25.104 495.492 25.36 494.938 25.872C494.383 26.384 493.946 27.1413 493.626 28.144C493.327 29.1253 493.178 30.352 493.178 31.824C493.178 33.2747 493.327 34.512 493.626 35.536C493.946 36.5387 494.383 37.296 494.938 37.808C495.492 38.32 496.132 38.576 496.858 38.576C497.604 38.576 498.255 38.32 498.81 37.808C499.364 37.296 499.791 36.5387 500.09 35.536C500.41 34.512 500.57 33.2747 500.57 31.824C500.57 30.352 500.41 29.1253 500.09 28.144C499.791 27.1413 499.364 26.384 498.81 25.872C498.255 25.36 497.604 25.104 496.858 25.104ZM520.823 34.448H541.655V37.808H520.823V34.448ZM517.687 42H544.535V45.456H517.687V42ZM520.823 21.36H541.431V24.752H525.143V35.376H520.823V21.36ZM523.831 27.888H540.759V31.184H523.831V27.888Z" fill="black"/>
</g>
<defs>
<clipPath id="clip0_4_3">
<rect width="810" height="130" fill="white"/>
</clipPath>
</defs>
</svg>
